<?xml version="1.0" encoding="UTF-8"?>
<svg width="18px" height="17px" viewBox="0 0 18 17" version="1.1" xmlns="http://www.w3.org/2000/svg" xmlns:xlink="http://www.w3.org/1999/xlink">
    <title>5EED0D13-6C7C-4D39-B4B4-30A96A64693A</title>
    <g id="Page-1" stroke="none" stroke-width="1" fill="none" fill-rule="evenodd">
        <g id="Landing---VD" transform="translate(-250.000000, -1232.000000)" fill="#0F1017" fill-rule="nonzero">
            <g id="Group-3" transform="translate(140.000000, 157.000000)">
                <g id="image" transform="translate(91.000000, 1058.000000)">
                    <path d="M35.2471849,17.0013873 C35.0088002,17.0119045 34.7866955,17.0813409 34.5911672,17.1603786 C34.4080079,17.2340552 33.7081958,17.5342031 32.6059248,18.0068995 C31.5026946,18.4800074 30.041894,19.1071744 28.4836122,19.7772882 C25.3670481,21.1175161 21.8632114,22.6261454 20.0685356,23.3982775 C20.0010503,23.4273011 19.7655749,23.5025268 19.5156472,23.6976393 C19.2657195,23.8927525 19,24.2970558 19,24.7475546 C19,25.1108196 19.1731237,25.4717114 19.3910325,25.6871784 C19.6089412,25.9026455 19.8395173,26.0090831 20.0370239,26.0896697 C20.7536431,26.3820718 22.9761928,27.2915881 23.3958926,27.4632967 C23.5435963,27.9157704 24.3480566,30.376608 24.5346136,30.9797244 C24.6575938,31.3777245 24.7746608,31.6269901 24.9270783,31.8248131 C25.0032873,31.9237242 25.0918742,32.0104087 25.1992256,32.0783396 C25.2421348,32.1054887 25.2891831,32.1264021 25.3367315,32.1456603 L25.339596,32.1470925 C25.3505525,32.1514927 25.3599975,32.1589613 25.371108,32.1628481 C25.392069,32.1701811 25.406091,32.1710618 25.4341319,32.1771715 C25.545841,32.2132479 25.658623,32.2358979 25.7592759,32.2358979 C26.1884139,32.2358994 26.4511023,31.99956 26.4511023,31.99956 L26.4668586,31.9881012 L28.6741148,30.0787738 L31.3511836,32.6111747 C31.3888756,32.6644742 31.7404134,33.146875 32.5156872,33.146875 C32.9760189,33.146875 33.3411855,32.9158841 33.5756284,32.6699011 C33.8100712,32.423918 33.9561333,32.1654912 34.0182258,31.8405687 L34.0182258,31.8391365 C34.076301,31.5321 36.5434646,18.8663114 36.5434646,18.8663115 L36.5391679,18.8834997 C36.6113896,18.5538427 36.6303156,18.2468357 36.5506267,17.9438758 C36.4709334,17.6409162 36.2609527,17.3508471 36.000603,17.194755 C35.740279,17.0386977 35.4855696,16.9908701 35.2471849,17.0013873 Z M35.109679,18.5340055 C35.1061588,18.5554088 35.1123147,18.544646 35.1068144,18.5698143 L35.1053822,18.5784084 L35.1039492,18.5870026 C35.1039492,18.5870026 32.6673456,31.0907918 32.5772781,31.5669891 C32.5838681,31.5310264 32.5537378,31.6025309 32.5228485,31.6457686 C32.4791752,31.6156677 32.3896394,31.5770157 32.3896394,31.5770157 L32.375316,31.5612601 L28.7185178,28.1021265 L26.1331196,30.3365978 L26.9022941,27.2570378 C26.9022941,27.2570378 31.7103601,22.2799531 32.0000392,21.990274 C32.23325,21.7585307 32.2822131,21.6777461 32.2822131,21.5978093 C32.2822131,21.4907381 32.2264085,21.4130358 32.1017364,21.4130358 C31.9895316,21.4130358 31.8386417,21.5221239 31.7579716,21.5734594 C30.7069856,22.2434213 26.092976,24.9325576 24.0246958,26.135505 C23.6960122,26.0009919 21.412524,25.0662728 20.6386123,24.7504191 C20.6444719,24.7478523 20.6425431,24.7487624 20.6486388,24.7461223 C22.4437845,23.9737878 25.9461615,22.4651703 29.0622827,21.1251328 C30.6203436,20.455114 32.0822546,19.8274705 33.184596,19.354744 C34.2699644,18.889296 35.0241158,18.5689655 35.109679,18.5340055 Z" id="Shape-Copy"></path>
                </g>
            </g>
        </g>
    </g>
</svg>