<?xml version="1.0" encoding="UTF-8"?>
<svg width="124px" height="124px" viewBox="0 0 124 124" version="1.1" xmlns="http://www.w3.org/2000/svg" xmlns:xlink="http://www.w3.org/1999/xlink">
    <title>406B4016-69CC-42E8-B01A-62A6880EB7B6</title>
    <g id="Page-1" stroke="none" stroke-width="1" fill="none" fill-rule="evenodd" opacity="0.0857747396">
        <g id="Landing---VD" transform="translate(-432.000000, -1485.000000)" fill="#FFFFFF">
            <g id="Logos" transform="translate(140.000000, 1485.000000)">
                <path d="M294.583333,118.833333 C296.010069,118.833333 297.166667,119.989931 297.166667,121.416667 C297.166667,122.843402 296.010069,124 294.583333,124 C293.156598,124 292,122.843402 292,121.416667 C292,119.989931 293.156598,118.833333 294.583333,118.833333 Z M314.780303,118.833333 C316.207039,118.833333 317.363636,119.989931 317.363636,121.416667 C317.363636,122.843402 316.207039,124 314.780303,124 C313.353567,124 312.19697,122.843402 312.19697,121.416667 C312.19697,119.989931 313.353567,118.833333 314.780303,118.833333 Z M334.037879,118.833333 C335.464614,118.833333 336.621212,119.989931 336.621212,121.416667 C336.621212,122.843402 335.464614,124 334.037879,124 C332.611143,124 331.454545,122.843402 331.454545,121.416667 C331.454545,119.989931 332.611143,118.833333 334.037879,118.833333 Z M354.234848,118.833333 C355.661584,118.833333 356.818182,119.989931 356.818182,121.416667 C356.818182,122.843402 355.661584,124 354.234848,124 C352.808113,124 351.651515,122.843402 351.651515,121.416667 C351.651515,119.989931 352.808113,118.833333 354.234848,118.833333 Z M373.962121,118.833333 C375.388857,118.833333 376.545455,119.989931 376.545455,121.416667 C376.545455,122.843402 375.388857,124 373.962121,124 C372.535386,124 371.378788,122.843402 371.378788,121.416667 C371.378788,119.989931 372.535386,118.833333 373.962121,118.833333 Z M393.219697,118.833333 C394.646433,118.833333 395.80303,119.989931 395.80303,121.416667 C395.80303,122.843402 394.646433,124 393.219697,124 C391.792961,124 390.636364,122.843402 390.636364,121.416667 C390.636364,119.989931 391.792961,118.833333 393.219697,118.833333 Z M413.416667,118.833333 C414.843402,118.833333 416,119.989931 416,121.416667 C416,122.843402 414.843402,124 413.416667,124 C411.989931,124 410.833333,122.843402 410.833333,121.416667 C410.833333,119.989931 411.989931,118.833333 413.416667,118.833333 Z M294.583333,98.6363636 C296.010069,98.6363636 297.166667,99.7929614 297.166667,101.219697 C297.166667,102.646433 296.010069,103.80303 294.583333,103.80303 C293.156598,103.80303 292,102.646433 292,101.219697 C292,99.7929614 293.156598,98.6363636 294.583333,98.6363636 Z M314.780303,98.6363636 C316.207039,98.6363636 317.363636,99.7929614 317.363636,101.219697 C317.363636,102.646433 316.207039,103.80303 314.780303,103.80303 C313.353567,103.80303 312.19697,102.646433 312.19697,101.219697 C312.19697,99.7929614 313.353567,98.6363636 314.780303,98.6363636 Z M334.037879,98.6363636 C335.464614,98.6363636 336.621212,99.7929614 336.621212,101.219697 C336.621212,102.646433 335.464614,103.80303 334.037879,103.80303 C332.611143,103.80303 331.454545,102.646433 331.454545,101.219697 C331.454545,99.7929614 332.611143,98.6363636 334.037879,98.6363636 Z M354.234848,98.6363636 C355.661584,98.6363636 356.818182,99.7929614 356.818182,101.219697 C356.818182,102.646433 355.661584,103.80303 354.234848,103.80303 C352.808113,103.80303 351.651515,102.646433 351.651515,101.219697 C351.651515,99.7929614 352.808113,98.6363636 354.234848,98.6363636 Z M373.962121,98.6363636 C375.388857,98.6363636 376.545455,99.7929614 376.545455,101.219697 C376.545455,102.646433 375.388857,103.80303 373.962121,103.80303 C372.535386,103.80303 371.378788,102.646433 371.378788,101.219697 C371.378788,99.7929614 372.535386,98.6363636 373.962121,98.6363636 Z M393.219697,98.6363636 C394.646433,98.6363636 395.80303,99.7929614 395.80303,101.219697 C395.80303,102.646433 394.646433,103.80303 393.219697,103.80303 C391.792961,103.80303 390.636364,102.646433 390.636364,101.219697 C390.636364,99.7929614 391.792961,98.6363636 393.219697,98.6363636 Z M413.416667,98.6363636 C414.843402,98.6363636 416,99.7929614 416,101.219697 C416,102.646433 414.843402,103.80303 413.416667,103.80303 C411.989931,103.80303 410.833333,102.646433 410.833333,101.219697 C410.833333,99.7929614 411.989931,98.6363636 413.416667,98.6363636 Z M294.583333,79.3787879 C296.010069,79.3787879 297.166667,80.5353856 297.166667,81.9621212 C297.166667,83.3888568 296.010069,84.5454545 294.583333,84.5454545 C293.156598,84.5454545 292,83.3888568 292,81.9621212 C292,80.5353856 293.156598,79.3787879 294.583333,79.3787879 Z M314.780303,79.3787879 C316.207039,79.3787879 317.363636,80.5353856 317.363636,81.9621212 C317.363636,83.3888568 316.207039,84.5454545 314.780303,84.5454545 C313.353567,84.5454545 312.19697,83.3888568 312.19697,81.9621212 C312.19697,80.5353856 313.353567,79.3787879 314.780303,79.3787879 Z M334.037879,79.3787879 C335.464614,79.3787879 336.621212,80.5353856 336.621212,81.9621212 C336.621212,83.3888568 335.464614,84.5454545 334.037879,84.5454545 C332.611143,84.5454545 331.454545,83.3888568 331.454545,81.9621212 C331.454545,80.5353856 332.611143,79.3787879 334.037879,79.3787879 Z M354.234848,79.3787879 C355.661584,79.3787879 356.818182,80.5353856 356.818182,81.9621212 C356.818182,83.3888568 355.661584,84.5454545 354.234848,84.5454545 C352.808113,84.5454545 351.651515,83.3888568 351.651515,81.9621212 C351.651515,80.5353856 352.808113,79.3787879 354.234848,79.3787879 Z M373.962121,79.3787879 C375.388857,79.3787879 376.545455,80.5353856 376.545455,81.9621212 C376.545455,83.3888568 375.388857,84.5454545 373.962121,84.5454545 C372.535386,84.5454545 371.378788,83.3888568 371.378788,81.9621212 C371.378788,80.5353856 372.535386,79.3787879 373.962121,79.3787879 Z M393.219697,79.3787879 C394.646433,79.3787879 395.80303,80.5353856 395.80303,81.9621212 C395.80303,83.3888568 394.646433,84.5454545 393.219697,84.5454545 C391.792961,84.5454545 390.636364,83.3888568 390.636364,81.9621212 C390.636364,80.5353856 391.792961,79.3787879 393.219697,79.3787879 Z M413.416667,79.3787879 C414.843402,79.3787879 416,80.5353856 416,81.9621212 C416,83.3888568 414.843402,84.5454545 413.416667,84.5454545 C411.989931,84.5454545 410.833333,83.3888568 410.833333,81.9621212 C410.833333,80.5353856 411.989931,79.3787879 413.416667,79.3787879 Z M354.234848,59.1818182 C355.661584,59.1818182 356.818182,60.3384159 356.818182,61.7651515 C356.818182,63.1918871 355.661584,64.3484848 354.234848,64.3484848 C352.808113,64.3484848 351.651515,63.1918871 351.651515,61.7651515 C351.651515,60.3384159 352.808113,59.1818182 354.234848,59.1818182 Z M393.219697,59.1818182 C394.646433,59.1818182 395.80303,60.3384159 395.80303,61.7651515 C395.80303,63.1918871 394.646433,64.3484848 393.219697,64.3484848 C391.792961,64.3484848 390.636364,63.1918871 390.636364,61.7651515 C390.636364,60.3384159 391.792961,59.1818182 393.219697,59.1818182 Z M294.583333,59.1818182 C296.010069,59.1818182 297.166667,60.3384159 297.166667,61.7651515 C297.166667,63.1918871 296.010069,64.3484848 294.583333,64.3484848 C293.156598,64.3484848 292,63.1918871 292,61.7651515 C292,60.3384159 293.156598,59.1818182 294.583333,59.1818182 Z M334.037879,59.1818182 C335.464614,59.1818182 336.621212,60.3384159 336.621212,61.7651515 C336.621212,63.1918871 335.464614,64.3484848 334.037879,64.3484848 C332.611143,64.3484848 331.454545,63.1918871 331.454545,61.7651515 C331.454545,60.3384159 332.611143,59.1818182 334.037879,59.1818182 Z M413.416667,59.1818182 C414.843402,59.1818182 416,60.3384159 416,61.7651515 C416,63.1918871 414.843402,64.3484848 413.416667,64.3484848 C411.989931,64.3484848 410.833333,63.1918871 410.833333,61.7651515 C410.833333,60.3384159 411.989931,59.1818182 413.416667,59.1818182 Z M373.962121,59.1818182 C375.388857,59.1818182 376.545455,60.3384159 376.545455,61.7651515 C376.545455,63.1918871 375.388857,64.3484848 373.962121,64.3484848 C372.535386,64.3484848 371.378788,63.1918871 371.378788,61.7651515 C371.378788,60.3384159 372.535386,59.1818182 373.962121,59.1818182 Z M314.780303,59.1818182 C316.207039,59.1818182 317.363636,60.3384159 317.363636,61.7651515 C317.363636,63.1918871 316.207039,64.3484848 314.780303,64.3484848 C313.353567,64.3484848 312.19697,63.1918871 312.19697,61.7651515 C312.19697,60.3384159 313.353567,59.1818182 314.780303,59.1818182 Z M413.416667,39.4545455 C414.843402,39.4545455 416,40.6111432 416,42.0378788 C416,43.4646144 414.843402,44.6212121 413.416667,44.6212121 C411.989931,44.6212121 410.833333,43.4646144 410.833333,42.0378788 C410.833333,40.6111432 411.989931,39.4545455 413.416667,39.4545455 Z M294.583333,39.4545455 C296.010069,39.4545455 297.166667,40.6111432 297.166667,42.0378788 C297.166667,43.4646144 296.010069,44.6212121 294.583333,44.6212121 C293.156598,44.6212121 292,43.4646144 292,42.0378788 C292,40.6111432 293.156598,39.4545455 294.583333,39.4545455 Z M334.037879,39.4545455 C335.464614,39.4545455 336.621212,40.6111432 336.621212,42.0378788 C336.621212,43.4646144 335.464614,44.6212121 334.037879,44.6212121 C332.611143,44.6212121 331.454545,43.4646144 331.454545,42.0378788 C331.454545,40.6111432 332.611143,39.4545455 334.037879,39.4545455 Z M373.962121,39.4545455 C375.388857,39.4545455 376.545455,40.6111432 376.545455,42.0378788 C376.545455,43.4646144 375.388857,44.6212121 373.962121,44.6212121 C372.535386,44.6212121 371.378788,43.4646144 371.378788,42.0378788 C371.378788,40.6111432 372.535386,39.4545455 373.962121,39.4545455 Z M314.780303,39.4545455 C316.207039,39.4545455 317.363636,40.6111432 317.363636,42.0378788 C317.363636,43.4646144 316.207039,44.6212121 314.780303,44.6212121 C313.353567,44.6212121 312.19697,43.4646144 312.19697,42.0378788 C312.19697,40.6111432 313.353567,39.4545455 314.780303,39.4545455 Z M393.219697,39.4545455 C394.646433,39.4545455 395.80303,40.6111432 395.80303,42.0378788 C395.80303,43.4646144 394.646433,44.6212121 393.219697,44.6212121 C391.792961,44.6212121 390.636364,43.4646144 390.636364,42.0378788 C390.636364,40.6111432 391.792961,39.4545455 393.219697,39.4545455 Z M354.234848,39.4545455 C355.661584,39.4545455 356.818182,40.6111432 356.818182,42.0378788 C356.818182,43.4646144 355.661584,44.6212121 354.234848,44.6212121 C352.808113,44.6212121 351.651515,43.4646144 351.651515,42.0378788 C351.651515,40.6111432 352.808113,39.4545455 354.234848,39.4545455 Z M294.583333,20.1969697 C296.010069,20.1969697 297.166667,21.3535674 297.166667,22.780303 C297.166667,24.2070386 296.010069,25.3636364 294.583333,25.3636364 C293.156598,25.3636364 292,24.2070386 292,22.780303 C292,21.3535674 293.156598,20.1969697 294.583333,20.1969697 Z M314.780303,20.1969697 C316.207039,20.1969697 317.363636,21.3535674 317.363636,22.780303 C317.363636,24.2070386 316.207039,25.3636364 314.780303,25.3636364 C313.353567,25.3636364 312.19697,24.2070386 312.19697,22.780303 C312.19697,21.3535674 313.353567,20.1969697 314.780303,20.1969697 Z M334.037879,20.1969697 C335.464614,20.1969697 336.621212,21.3535674 336.621212,22.780303 C336.621212,24.2070386 335.464614,25.3636364 334.037879,25.3636364 C332.611143,25.3636364 331.454545,24.2070386 331.454545,22.780303 C331.454545,21.3535674 332.611143,20.1969697 334.037879,20.1969697 Z M354.234848,20.1969697 C355.661584,20.1969697 356.818182,21.3535674 356.818182,22.780303 C356.818182,24.2070386 355.661584,25.3636364 354.234848,25.3636364 C352.808113,25.3636364 351.651515,24.2070386 351.651515,22.780303 C351.651515,21.3535674 352.808113,20.1969697 354.234848,20.1969697 Z M373.962121,20.1969697 C375.388857,20.1969697 376.545455,21.3535674 376.545455,22.780303 C376.545455,24.2070386 375.388857,25.3636364 373.962121,25.3636364 C372.535386,25.3636364 371.378788,24.2070386 371.378788,22.780303 C371.378788,21.3535674 372.535386,20.1969697 373.962121,20.1969697 Z M393.219697,20.1969697 C394.646433,20.1969697 395.80303,21.3535674 395.80303,22.780303 C395.80303,24.2070386 394.646433,25.3636364 393.219697,25.3636364 C391.792961,25.3636364 390.636364,24.2070386 390.636364,22.780303 C390.636364,21.3535674 391.792961,20.1969697 393.219697,20.1969697 Z M413.416667,20.1969697 C414.843402,20.1969697 416,21.3535674 416,22.780303 C416,24.2070386 414.843402,25.3636364 413.416667,25.3636364 C411.989931,25.3636364 410.833333,24.2070386 410.833333,22.780303 C410.833333,21.3535674 411.989931,20.1969697 413.416667,20.1969697 Z M294.583333,0 C296.010069,0 297.166667,1.15659773 297.166667,2.58333333 C297.166667,4.01006894 296.010069,5.16666667 294.583333,5.16666667 C293.156598,5.16666667 292,4.01006894 292,2.58333333 C292,1.15659773 293.156598,0 294.583333,0 Z M314.780303,0 C316.207039,0 317.363636,1.15659773 317.363636,2.58333333 C317.363636,4.01006894 316.207039,5.16666667 314.780303,5.16666667 C313.353567,5.16666667 312.19697,4.01006894 312.19697,2.58333333 C312.19697,1.15659773 313.353567,0 314.780303,0 Z M334.037879,0 C335.464614,0 336.621212,1.15659773 336.621212,2.58333333 C336.621212,4.01006894 335.464614,5.16666667 334.037879,5.16666667 C332.611143,5.16666667 331.454545,4.01006894 331.454545,2.58333333 C331.454545,1.15659773 332.611143,0 334.037879,0 Z M354.234848,0 C355.661584,0 356.818182,1.15659773 356.818182,2.58333333 C356.818182,4.01006894 355.661584,5.16666667 354.234848,5.16666667 C352.808113,5.16666667 351.651515,4.01006894 351.651515,2.58333333 C351.651515,1.15659773 352.808113,0 354.234848,0 Z M373.962121,0 C375.388857,0 376.545455,1.15659773 376.545455,2.58333333 C376.545455,4.01006894 375.388857,5.16666667 373.962121,5.16666667 C372.535386,5.16666667 371.378788,4.01006894 371.378788,2.58333333 C371.378788,1.15659773 372.535386,0 373.962121,0 Z M393.219697,0 C394.646433,0 395.80303,1.15659773 395.80303,2.58333333 C395.80303,4.01006894 394.646433,5.16666667 393.219697,5.16666667 C391.792961,5.16666667 390.636364,4.01006894 390.636364,2.58333333 C390.636364,1.15659773 391.792961,0 393.219697,0 Z M413.416667,0 C414.843402,0 416,1.15659773 416,2.58333333 C416,4.01006894 414.843402,5.16666667 413.416667,5.16666667 C411.989931,5.16666667 410.833333,4.01006894 410.833333,2.58333333 C410.833333,1.15659773 411.989931,0 413.416667,0 Z" id="Combined-Shape"></path>
            </g>
        </g>
    </g>
</svg>