<?xml version="1.0" encoding="UTF-8"?>
<svg width="127px" height="48px" viewBox="0 0 127 48" version="1.1" xmlns="http://www.w3.org/2000/svg" xmlns:xlink="http://www.w3.org/1999/xlink">
    <title>85604A91-D976-42CF-8526-9042BE6E5DD2</title>
    <g id="Page-1" stroke="none" stroke-width="1" fill="none" fill-rule="evenodd">
        <g id="Landing---VD" transform="translate(-140.000000, -51.000000)">
            <g id="mountains" transform="translate(140.000000, 50.000000)">
                <path d="M35.201,44.815 C35.201,46.805 33.584,48.424 31.594,48.424 L3.609,48.424 C1.619,48.424 0,46.805 0,44.815 C0,44.621 0.037,44.43 0.106,44.25 L9.797,18.849 C9.801,18.81 9.807,18.768 9.811,18.729 L9.811,4.174 L8.666,4.174 C7.789,4.174 7.08,3.464 7.08,2.586 C7.08,1.71 7.789,1 8.666,1 L11.397,1 C12.275,1 12.984,1.71 12.984,2.586 L12.984,18.851 C12.984,18.943 12.977,19.034 12.963,19.123 C12.963,19.317 12.916,19.577 12.846,19.756 L7.008,35.057 L28.059,35.057 L22.025,19.774 C21.961,19.609 21.926,19.436 21.918,19.259 L21.904,19.164 C21.899,19.101 21.895,19.038 21.895,18.978 L21.895,2.586 C21.895,1.71 22.604,1 23.481,1 L26.283,1 C27.16,1 27.869,1.71 27.869,2.586 C27.869,3.464 27.16,4.174 26.283,4.174 L25.066,4.174 L25.066,18.834 L35.092,44.233 C35.164,44.418 35.201,44.616 35.201,44.815 L35.201,44.815 Z" id="Fill-124" fill="#FFFFFF"></path>
                <path d="M19.022,24.712 C19.934,24.712 20.676,25.453 20.676,26.366 C20.676,27.276 19.934,28.018 19.022,28.018 C18.109,28.018 17.369,27.277 17.369,26.366 C17.369,25.453 18.109,24.712 19.022,24.712 Z M19.022,25.505 C18.547,25.505 18.162,25.892 18.162,26.366 C18.162,26.839 18.547,27.225 19.022,27.225 C19.494,27.225 19.883,26.839 19.883,26.366 C19.883,25.892 19.494,25.505 19.022,25.505 Z" id="Combined-Shape" fill="#DA58EB"></path>
                <path d="M21.865,29.141 C22.522,29.141 23.055,29.675 23.055,30.331 C23.055,30.987 22.522,31.521 21.865,31.521 C21.207,31.521 20.676,30.987 20.676,30.331 C20.676,29.676 21.207,29.141 21.865,29.141 Z M21.865,29.935 C21.647,29.935 21.469,30.114 21.469,30.331 C21.469,30.55 21.647,30.728 21.865,30.728 C22.084,30.728 22.262,30.55 22.262,30.331 C22.262,30.113 22.084,29.935 21.865,29.935 Z" id="Combined-Shape" fill="#DA58EB"></path>
                <path d="M15.717,30.331 C16.373,30.331 16.906,30.865 16.906,31.521 C16.906,32.178 16.373,32.711 15.717,32.711 C15.061,32.711 14.527,32.178 14.527,31.521 C14.527,30.866 15.061,30.331 15.717,30.331 Z M15.717,31.124 C15.498,31.124 15.32,31.303 15.32,31.521 C15.32,31.74 15.498,31.918 15.717,31.918 C15.936,31.918 16.113,31.74 16.113,31.521 C16.113,31.303 15.936,31.124 15.717,31.124 Z" id="Combined-Shape" fill="#DA58EB"></path>
                <text id=".Capital" font-family="Tahoma" font-size="12" font-weight="normal" fill="#FFFFFF">
                    <tspan x="78" y="40">.CAPITAL</tspan>
                </text>
                <text id="Serum" font-family="LucidaGrande-Bold, Lucida Grande" font-size="26" font-weight="bold" fill="#FFFFFF">
                    <tspan x="45" y="25">Serum</tspan>
                </text>
                <path d="M7.008,35.057 L4.20567582,42.2265258 C3.80356249,43.2553012 4.3115724,44.4152656 5.34034771,44.8173789 C5.57237903,44.9080721 5.81931227,44.9546164 6.06843831,44.9546164 L28.7072278,44.9546164 C29.8117973,44.9546164 30.7072278,44.0591859 30.7072278,42.9546164 C30.7072278,42.7293851 30.6691828,42.5057717 30.5946984,42.293213 L28.059,35.057 L28.059,35.057 L7.008,35.057 Z" id="Path-2" fill="#DA58EB"></path>
            </g>
        </g>
    </g>
</svg>